<svg width="14" height="18" viewBox="0 0 14 18" fill="none" xmlns="http://www.w3.org/2000/svg">
<path d="M13.9634 7.23617C14.2547 5.34479 12.7721 4.3281 10.7449 3.64987L11.4025 1.08783L9.79685 0.699212L9.15665 3.1938C8.73452 3.09154 8.30102 2.99518 7.87017 2.89966L8.51502 0.388613L6.91033 0L6.25232 2.56121C5.903 2.48396 5.55991 2.40761 5.22704 2.32716L5.2289 2.3191L3.01462 1.78204L2.58749 3.44778C2.58749 3.44778 3.77877 3.71301 3.75367 3.72934C4.40388 3.88697 4.52147 4.30503 4.50194 4.6364L3.75281 7.55517C3.79758 7.56622 3.85566 7.58219 3.91974 7.6072C3.86617 7.59428 3.80917 7.58018 3.75002 7.56643L2.69999 11.6552C2.62053 11.8471 2.41883 12.135 1.96423 12.0257C1.98033 12.0483 0.797195 11.7428 0.797195 11.7428L0 13.528L2.08954 14.034C2.47827 14.1287 2.8592 14.2277 3.23434 14.3209L2.56989 16.9123L4.17372 17.3009L4.83173 14.737C5.26988 14.8525 5.69509 14.9591 6.11135 15.0596L5.45555 17.6114L7.06132 18L7.72569 15.4134C10.4637 15.9167 12.5225 15.7138 13.3891 13.3084C14.0874 11.3717 13.3543 10.2546 11.9139 9.52616C12.963 9.29115 13.7527 8.6207 13.9634 7.23617ZM10.2948 12.2328C9.79857 14.1695 6.44143 13.1226 5.35299 12.8601L6.23473 9.42689C7.32309 9.69081 10.8133 10.2131 10.2948 12.2328ZM10.7914 7.2081C10.3387 8.96971 7.54453 8.07473 6.63812 7.85528L7.43753 4.74158C8.34394 4.96104 11.2628 5.37063 10.7914 7.2081Z" fill="#FFBB11"/>
</svg>
