<svg width="16" height="14" viewBox="0 0 16 14" fill="none" xmlns="http://www.w3.org/2000/svg">
<path fill-rule="evenodd" clip-rule="evenodd" d="M0.010848 6.80116L3.52391 8.26701C3.9633 8.00893 4.47263 7.86133 5.01565 7.86133C5.11103 7.86133 5.2053 7.86594 5.29837 7.87483L7.83714 4.17777V4.17517C7.83714 3.0223 8.294 1.97853 9.03262 1.22294C9.77124 0.467356 10.7916 0 11.9186 0C13.0456 0 14.0659 0.467356 14.8045 1.22294C15.5431 1.97853 16 3.02235 16 4.17517C16 5.32804 15.5431 6.37181 14.8045 7.1274C14.0659 7.88298 13.0456 8.35034 11.9186 8.35034C11.9042 8.35034 11.8899 8.35019 11.8756 8.35004L7.99947 11.2544C7.92584 11.9727 7.6101 12.6172 7.1372 13.101C6.59423 13.6564 5.84413 14 5.01561 14C4.18708 14 3.43703 13.6564 2.89401 13.101C2.49767 12.6955 2.21169 12.1772 2.08612 11.5972L0 10.7435L0.0108 6.80116H0.010848ZM4.58721 8.7107L5.51682 9.09856C7.43783 9.90011 6.58242 13.0493 4.22193 12.4711L3.06489 11.9976C3.16799 12.1945 3.29865 12.3739 3.45172 12.5305C3.8519 12.9398 4.40486 13.1931 5.01561 13.1931C5.62636 13.1931 6.17932 12.9398 6.57949 12.5305C6.97967 12.1211 7.2272 11.5554 7.2272 10.9307C7.2272 10.3059 6.97967 9.74023 6.57949 9.33086C6.17932 8.9215 5.6264 8.66828 5.01561 8.66828C4.86901 8.66828 4.72578 8.68291 4.58721 8.71075V8.7107ZM11.9039 2.10398C13.0338 2.10398 13.9498 3.04105 13.9498 4.19692C13.9498 5.35284 13.0338 6.28986 11.9039 6.28986C10.7739 6.28986 9.85793 5.35284 9.85793 4.19692C9.85793 3.041 10.7739 2.10398 11.9039 2.10398ZM13.8099 2.24039C13.3259 1.74529 12.6572 1.43904 11.9185 1.43904C11.1798 1.43904 10.5112 1.74529 10.0271 2.24039C9.54315 2.73549 9.24377 3.41958 9.24377 4.17522C9.24377 4.93085 9.54315 5.6149 10.0271 6.11005C10.5111 6.60514 11.1798 6.9114 11.9185 6.9114C12.6572 6.9114 13.3259 6.60514 13.8099 6.11005C14.2939 5.61495 14.5933 4.93085 14.5933 4.17522C14.5933 3.41958 14.2939 2.73549 13.8099 2.24039Z" fill="#FFC700"/>
</svg>
