<svg width="20" height="20" viewBox="0 0 20 20" fill="none" xmlns="http://www.w3.org/2000/svg">
<path d="M13.999 0.459473H6.00088C4.52677 0.459473 3.11304 1.04506 2.07069 2.08741C1.02834 3.12976 0.442749 4.54349 0.442749 6.0176V13.9991C0.442749 15.4732 1.02834 16.8869 2.07069 17.9293C3.11304 18.9716 4.52677 19.5572 6.00088 19.5572H13.999C15.4731 19.5572 16.8869 18.9716 17.9292 17.9293C18.9716 16.8869 19.5572 15.4732 19.5572 13.9991V6.00093C19.5527 4.52971 18.9652 3.12026 17.9233 2.08151C16.8815 1.04276 15.4703 0.459466 13.999 0.459473ZM18.0509 13.9991C18.0494 15.0733 17.6221 16.103 16.8625 16.8626C16.103 17.6221 15.0732 18.0495 13.999 18.051H6.00088C4.92671 18.0495 3.89695 17.6221 3.13739 16.8626C2.37784 16.103 1.95047 15.0733 1.949 13.9991V6.00093C1.95047 4.92675 2.37784 3.897 3.13739 3.13744C3.89695 2.37789 4.92671 1.95052 6.00088 1.94905H13.999C15.0732 1.95052 16.103 2.37789 16.8625 3.13744C17.6221 3.897 18.0494 4.92675 18.0509 6.00093V13.9991ZM10.0027 4.85595C8.98455 4.85485 7.98892 5.15578 7.14179 5.72065C6.29467 6.28552 5.63413 7.08896 5.24372 8.02932C4.85332 8.96968 4.7506 10.0047 4.94856 11.0035C5.14653 12.0022 5.63628 12.9198 6.35585 13.6402C7.07543 14.3605 7.99249 14.8513 8.99103 15.0503C9.98957 15.2493 11.0247 15.1477 11.9655 14.7584C12.9063 14.369 13.7104 13.7093 14.2762 12.8628C14.842 12.0163 15.144 11.021 15.144 10.0028C15.1425 8.63917 14.6006 7.33175 13.6369 6.36701C12.6732 5.40227 11.3663 4.85889 10.0027 4.85595ZM10.0027 13.6545C9.27988 13.6512 8.57421 13.4337 7.97486 13.0296C7.37551 12.6255 6.90935 12.0529 6.63526 11.384C6.36117 10.7151 6.29145 9.98 6.43489 9.27152C6.57834 8.56303 6.92852 7.91294 7.4412 7.40336C7.95389 6.89377 8.60609 6.54755 9.31544 6.4084C10.0248 6.26926 10.7594 6.34345 11.4267 6.62159C12.0939 6.89974 12.6637 7.36936 13.0641 7.97116C13.4646 8.57295 13.6777 9.27992 13.6767 10.0028C13.6789 10.4859 13.5853 10.9646 13.4015 11.4113C13.2176 11.8581 12.9471 12.264 12.6055 12.6056C12.2639 12.9472 11.858 13.2177 11.4113 13.4015C10.9646 13.5854 10.4858 13.6789 10.0027 13.6767V13.6545ZM15.2218 4.03335C15.0732 4.03225 14.9276 4.07532 14.8034 4.1571C14.6793 4.23887 14.5823 4.35567 14.5246 4.49268C14.467 4.62969 14.4513 4.78073 14.4797 4.92665C14.508 5.07256 14.579 5.20678 14.6837 5.31228C14.7884 5.41777 14.9221 5.48979 15.0678 5.51919C15.2135 5.5486 15.3647 5.53407 15.5021 5.47744C15.6395 5.42082 15.7571 5.32465 15.8398 5.20114C15.9224 5.07763 15.9666 4.93234 15.9666 4.7837C15.9673 4.68542 15.9486 4.58798 15.9115 4.49697C15.8744 4.40597 15.8197 4.3232 15.7504 4.25345C15.6812 4.1837 15.5988 4.12835 15.5081 4.09057C15.4174 4.05279 15.3201 4.03335 15.2218 4.03335Z" fill="white"/>
</svg>
