<svg width="14" height="16" viewBox="0 0 14 16" fill="none" xmlns="http://www.w3.org/2000/svg">
<path d="M6.15305 5.01757C6.18632 4.80321 6.32378 4.62812 6.50869 4.53975C6.59323 4.49939 6.68651 4.47702 6.78523 4.47702H10.7954C11.2705 4.47702 11.714 4.50812 12.1187 4.57357C12.2343 4.59212 12.3467 4.61339 12.4563 4.63739C12.5654 4.66193 12.6718 4.68921 12.7749 4.71921C12.8261 4.73448 12.8769 4.7503 12.9265 4.76612C13.1256 4.83212 13.3105 4.91012 13.4812 5.00012C13.682 3.71993 13.4796 2.8483 12.7874 2.05902C12.0243 1.19012 10.6471 0.818115 8.88469 0.818115H3.76832C3.40832 0.818115 3.10123 1.07993 3.0456 1.43612L0.914506 14.9443C0.872506 15.2116 1.07869 15.4527 1.34814 15.4527H4.50687L5.29996 10.4208L6.15305 5.01757Z" fill="#253B80"/>
</svg>
