<svg width="18" height="16" viewBox="0 0 18 16" fill="none" xmlns="http://www.w3.org/2000/svg">
<path d="M17.4012 2.46126C17.1297 2.5846 16.8513 2.69224 16.5674 2.78363C16.9139 2.39232 17.1734 1.93199 17.3289 1.43301C17.3472 1.37908 17.3485 1.32084 17.3326 1.26616C17.3167 1.21149 17.2843 1.16302 17.24 1.12731C17.1926 1.09456 17.1364 1.07702 17.0788 1.07702C17.0212 1.07702 16.965 1.09456 16.9176 1.12731C16.2904 1.48444 15.6088 1.73606 14.9 1.8721C14.3674 1.35362 13.6938 1.00345 12.9635 0.865282C12.2331 0.727113 11.4782 0.807056 10.7929 1.09514C10.1077 1.38322 9.52246 1.8667 9.11022 2.48524C8.69798 3.10379 8.47699 3.83002 8.47482 4.57335C8.47467 4.73696 8.48581 4.90039 8.50816 5.06246C7.22639 4.94591 5.98089 4.5741 4.84498 3.96892C3.70907 3.36374 2.70572 2.53742 1.89399 1.53861C1.86331 1.5047 1.82541 1.47811 1.78308 1.4608C1.74076 1.44348 1.69509 1.43589 1.64943 1.43856C1.6038 1.44164 1.55964 1.45594 1.52086 1.48018C1.48207 1.50441 1.44987 1.53785 1.42711 1.57752C1.09224 2.15506 0.915847 2.8108 0.915761 3.4784C0.913046 4.37517 1.23259 5.24307 1.81618 5.92397C1.64143 5.86474 1.47219 5.79035 1.31039 5.70165C1.26712 5.6773 1.21831 5.66451 1.16866 5.66451C1.11901 5.66451 1.07019 5.6773 1.02692 5.70165C0.984922 5.7259 0.949996 5.76072 0.925619 5.80264C0.901243 5.84457 0.888264 5.89215 0.887971 5.94065V5.99067C0.888299 6.64591 1.05847 7.28988 1.38188 7.85975C1.70529 8.42961 2.1709 8.90591 2.73327 9.24218L2.4498 9.19771C2.40126 9.18903 2.35129 9.19291 2.30467 9.209C2.25805 9.22508 2.21632 9.25283 2.18345 9.2896C2.15058 9.32637 2.12766 9.37093 2.11689 9.41906C2.10611 9.46719 2.10783 9.51727 2.12188 9.56455C2.32535 10.1913 2.68867 10.7541 3.17601 11.1976C3.66334 11.6411 4.25787 11.9499 4.90094 12.0935C3.83224 12.7652 2.59487 13.1198 1.33262 13.1162C1.06504 13.1165 0.797711 13.0998 0.53225 13.0662C0.468336 13.0598 0.404135 13.075 0.349785 13.1092C0.295434 13.1434 0.254031 13.1948 0.232112 13.2551C0.210414 13.3151 0.209584 13.3807 0.229756 13.4412C0.249928 13.5017 0.289923 13.5537 0.343274 13.5886C1.98658 14.644 3.89835 15.2054 5.85138 15.206C7.28365 15.2383 8.7056 14.9564 10.0173 14.3803C11.329 13.8041 12.4985 12.9477 13.4438 11.8712C15.1118 9.97092 16.0427 7.53526 16.0672 5.00688C16.0672 4.90684 16.0672 4.80123 16.0672 4.69563C16.7186 4.19587 17.2822 3.591 17.7347 2.90591C17.7688 2.85488 17.7854 2.79416 17.7821 2.73287C17.7787 2.67158 17.7555 2.61303 17.7161 2.56603C17.6766 2.51903 17.6229 2.48611 17.5631 2.47223C17.5033 2.45835 17.4406 2.46425 17.3845 2.48905L17.4012 2.46126Z" fill="white"/>
</svg>
